<?xml version="1.0" encoding="utf-8"?>
<!-- Generator: Adobe Illustrator 19.0.0, SVG Export Plug-In . SVG Version: 6.00 Build 0)  -->
<svg version="1.1" id="图层_1" xmlns="http://www.w3.org/2000/svg" xmlns:xlink="http://www.w3.org/1999/xlink" x="0px" y="0px"
	 viewBox="0 0 120 120" style="enable-background:new 0 0 120 120;" xml:space="preserve">
<style type="text/css">
	.st0{fill:#787A80;}
</style>
<path id="XMLID_7_" class="st0" d="M108,0H12C5.4,0,0,5.4,0,12c0,35.6,0,60.2,0,96c0,6.6,5.4,12,12,12h96c6.6,0,12-5.4,12-12
	c0-35.9,0-60.2,0-96C120,5.4,114.6,0,108,0L108,0z M108,102c0,3.3-2.7,6-6,6H18c-3.3,0-6-2.7-6-6V66l22.5,6c0.8,0,1.6-0.3,2.1-0.9
	l11-17c1.4-1.4,3.7-1.1,4.7,0.6c13.2,22.5,10.6,18,13.9,23.8c2,3.4,6.6,4,9.4,1.2l18.9-24.8c0.6-0.6,1.3-0.9,2.1-0.9L108,66V102
	L108,102z M108,54L91.7,42c-0.8,0-1.6,0.3-2.1,0.9L75.2,63.3c-1.4,1.4-3.7,1.1-4.7-0.6c-13.3-22.8-11.4-19.5-14-23.9
	c-2-3.4-6.6-4-9.4-1.2l-3,3v0.1L31.6,59.1C31,59.7,30.3,60,29.5,60L12,54V18c0-3.3,2.7-6,6-6h84c3.3,0,6,2.7,6,6V54L108,54z"/>
</svg>
