<?xml version="1.0" encoding="utf-8"?>
<!-- Generator: Adobe Illustrator 19.0.0, SVG Export Plug-In . SVG Version: 6.00 Build 0)  -->
<svg version="1.1" id="图层_1" xmlns="http://www.w3.org/2000/svg" xmlns:xlink="http://www.w3.org/1999/xlink" x="0px" y="0px"
	 viewBox="0 0 120 120" style="enable-background:new 0 0 120 120;" xml:space="preserve">
<style type="text/css">
	.st0{fill:#787A80;}
</style>
<path id="XMLID_21_" class="st0" d="M108,12H84c-3.3,0-6,2.7-6,6v78c0,6.6,5.4,12,12,12h18c6.6,0,12-5.4,12-12V24
	C120,17.4,114.6,12,108,12L108,12z M108,90c0,3.3-2.7,6-6,6h-6c-3.3,0-6-2.7-6-6V30c0-3.3,2.7-6,6-6h6c3.3,0,6,2.7,6,6V90L108,90z
	 M30,12H12C5.4,12,0,17.4,0,24v72c0,6.6,5.4,12,12,12h18c6.6,0,12-5.4,12-12V24C42,17.4,36.6,12,30,12L30,12z M30,90
	c0,3.3-2.7,6-6,6h-6c-3.3,0-6-2.7-6-6V30c0-3.3,2.7-6,6-6h6c3.3,0,6,2.7,6,6V90L30,90z M66,6v108c0,3.3-2.7,6-6,6s-6-2.7-6-6V6
	c0-3.3,2.7-6,6-6S66,2.7,66,6L66,6z"/>
</svg>
