<?xml version="1.0" encoding="utf-8"?>
<!-- Generator: Adobe Illustrator 19.0.0, SVG Export Plug-In . SVG Version: 6.00 Build 0)  -->
<svg version="1.1" id="图层_1" xmlns="http://www.w3.org/2000/svg" xmlns:xlink="http://www.w3.org/1999/xlink" x="0px" y="0px"
	 viewBox="0 0 120 120" style="enable-background:new 0 0 120 120;" xml:space="preserve">
<style type="text/css">
	.st0{fill:#787A80;}
</style>
<path id="XMLID_22_" class="st0" d="M108,12H66V6c0-3.3-2.7-6-6-6l0,0c-3.3,0-6,2.7-6,6v6H12l0,0C5.4,12,0,17.4,0,24l0,0v48l0,0
	c0,6.6,5.4,12,12,12l0,0h28.8L28,111.5c-1.9,4,1,8.5,5.4,8.5l0,0c2.3,0,4.4-1.3,5.4-3.4L54,84v30c0,3.3,2.7,6,6,6l0,0
	c3.3,0,6-2.7,6-6V84l15.2,32.5c1,2.1,3.1,3.4,5.4,3.4l0,0c4.4,0,7.3-4.5,5.4-8.5L79.2,84H108l0,0c6.6,0,12-5.4,12-12l0,0V24l0,0
	C120,17.4,114.6,12,108,12L108,12L108,12z M108,66c0,3.3-2.7,6-6,6H66H54H18c-3.3,0-6-2.7-6-6V30c0-3.3,2.7-6,6-6h84
	c3.3,0,6,2.7,6,6V66L108,66z"/>
</svg>
