<?xml version="1.0" encoding="utf-8"?>
<!-- Generator: Adobe Illustrator 19.0.0, SVG Export Plug-In . SVG Version: 6.00 Build 0)  -->
<svg version="1.1" id="图层_1" xmlns="http://www.w3.org/2000/svg" xmlns:xlink="http://www.w3.org/1999/xlink" x="0px" y="0px"
	 viewBox="0 0 120 120" style="enable-background:new 0 0 120 120;" xml:space="preserve">
<style type="text/css">
	.st0{fill:#787A80;}
</style>
<path id="XMLID_8_" class="st0" d="M113.7,48L59.8,0L6,48c0,38,0,34.4,0,72c17.3,0,24.9,0,42,0c0-8.9,0-21.4,0-30h24
	c0,8.6,0,21.1,0,30h42v-0.2c0-16.1,0-55.5,0-71.8H113.7L113.7,48z M102,108H84V78c-14,0-36.1,0-48,0v30H18V52.8l41.9-35.9l42.1,36
	V108L102,108z"/>
</svg>
